<?xml version="1.0" standalone="no"?>
<!DOCTYPE svg PUBLIC "-//W3C//DTD SVG 20010904//EN"
 "http://www.w3.org/TR/2001/REC-SVG-20010904/DTD/svg10.dtd">
<svg version="1.0" xmlns="http://www.w3.org/2000/svg"
 width="480.000000pt" height="480.000000pt" viewBox="0 0 480.000000 480.000000"
 preserveAspectRatio="xMidYMid meet">
<metadata>
Created by potrace 1.14, written by Peter Selinger 2001-2017
</metadata>
<g transform="translate(0.000000,480.000000) scale(0.100000,-0.100000)"
fill="#000000" stroke="none">
<path d="M1597 4654 c-1 -1 -31 -4 -67 -7 -91 -8 -123 -15 -225 -49 -248 -82
-436 -243 -573 -490 -150 -269 -184 -374 -227 -698 -2 -19 -7 -107 -11 -195
-6 -150 -5 -167 19 -260 61 -247 208 -438 372 -487 97 -28 211 -17 299 31 28
14 84 59 125 100 44 42 84 73 96 73 47 0 186 -36 255 -65 l75 -32 2 -95 c1
-52 3 -104 5 -114 2 -16 -5 -22 -41 -29 -73 -15 -148 -70 -214 -157 -27 -37
-58 -136 -53 -167 2 -10 7 -45 11 -78 17 -140 113 -232 262 -251 43 -5 53 -10
49 -23 -8 -27 -36 -145 -41 -171 -3 -14 -10 -50 -17 -80 -7 -30 -13 -124 -13
-210 0 -161 16 -270 57 -389 14 -43 16 -56 6 -63 -62 -40 -277 -60 -376 -34
-105 27 -125 23 -174 -31 -91 -103 -246 -250 -275 -262 -33 -14 -57 -48 -51
-76 18 -92 274 -82 529 21 l87 35 58 -15 c93 -23 224 -2 339 56 21 11 41 16
42 11 2 -5 20 -37 41 -72 49 -84 160 -188 242 -227 107 -52 121 -56 216 -61
81 -5 101 -3 179 22 110 35 192 90 263 176 68 83 67 81 82 110 18 34 27 38 74
27 22 -5 74 -8 113 -6 72 3 73 3 85 -27 27 -64 152 -189 229 -227 212 -106
432 -66 625 115 46 43 84 84 84 90 0 6 6 18 14 26 29 32 84 159 106 246 84
327 -54 675 -315 794 -90 41 -163 55 -248 48 -41 -4 -83 -10 -93 -13 -10 -4
11 24 47 62 85 90 111 129 198 292 12 22 12 22 39 4 47 -32 81 -42 140 -42 76
1 127 25 184 89 69 77 92 143 93 266 0 89 -3 106 -27 155 -40 80 -85 125 -210
205 -42 28 -99 62 -127 77 -47 26 -51 31 -51 65 -1 52 -30 112 -73 150 -19 17
-48 51 -63 75 -34 53 -193 214 -256 258 l-47 32 28 31 c31 32 75 151 86 230
35 242 -59 534 -233 720 -111 120 -271 216 -382 231 -25 3 -63 10 -85 16 -22
5 -137 14 -255 20 -118 5 -246 15 -285 21 -105 16 -217 48 -245 68 -39 28
-161 92 -205 108 -22 8 -62 19 -90 24 -47 10 -203 27 -208 23z m208 -83 c85
-23 173 -62 241 -106 75 -50 159 -73 354 -99 19 -3 107 -8 195 -11 228 -9 365
-29 460 -67 90 -36 221 -141 303 -243 114 -141 192 -402 172 -572 -12 -97 -41
-193 -74 -244 l-26 -38 -37 15 c-55 23 -57 27 -31 66 13 19 37 60 53 90 24 47
33 56 54 55 44 -3 36 27 -20 74 -48 40 -52 42 -65 25 -9 -13 -10 -24 -2 -41 8
-19 4 -36 -25 -96 -29 -61 -68 -119 -81 -119 -1 0 -25 7 -52 15 -218 64 -457
62 -659 -7 -196 -68 -390 -208 -506 -368 -24 -33 -49 -60 -55 -60 -11 0 -60
21 -172 71 -49 23 -162 96 -210 137 -34 28 -34 28 -21 71 11 36 10 44 -2 52
-8 5 -20 8 -28 6 -15 -2 -17 -5 -62 -99 -26 -56 -29 -70 -19 -83 17 -20 33
-19 55 5 17 19 18 18 84 -35 63 -51 225 -140 309 -170 21 -7 36 -17 35 -21 -1
-5 -17 -43 -35 -86 -31 -72 -34 -76 -60 -71 -16 3 -41 0 -57 -6 -25 -11 -33
-9 -64 12 -50 34 -184 84 -247 91 -50 6 -100 18 -100 25 1 3 9 31 20 61 51
145 0 373 -133 593 -39 65 -141 198 -170 223 -35 29 -43 30 -58 3 -9 -18 -8
-24 4 -31 9 -4 45 -46 82 -93 162 -208 235 -384 235 -566 0 -85 -2 -95 -40
-174 -34 -72 -50 -93 -111 -144 -145 -122 -283 -137 -422 -44 -147 98 -264
334 -270 545 -2 89 11 296 23 358 5 25 11 63 14 85 7 57 35 175 51 210 7 17
16 41 20 55 30 100 180 357 274 469 44 52 154 141 224 180 92 52 219 96 307
107 25 4 47 8 49 10 2 2 54 4 115 4 76 0 133 -6 181 -19z m1953 -1788 c66 -31
102 -91 102 -167 l0 -45 85 -43 c110 -56 240 -152 275 -203 49 -71 65 -137 53
-219 -17 -120 -68 -201 -155 -248 -76 -41 -191 0 -239 86 -18 31 -20 43 -10
57 6 10 11 28 11 39 0 35 -37 24 -66 -20 -28 -42 -64 -70 -89 -70 -9 0 -27 11
-41 25 -32 32 -26 67 22 140 21 31 34 61 31 70 -11 28 -30 18 -72 -38 -36 -48
-80 -73 -101 -56 -35 29 -3 105 79 181 33 32 37 40 27 53 -8 9 -30 15 -60 15
-26 0 -61 5 -78 11 -52 18 -64 94 -26 157 12 18 23 22 69 22 31 0 70 -7 91
-17 35 -17 36 -17 50 2 21 29 18 40 -27 76 -40 33 -79 94 -79 125 0 24 64 84
90 84 12 0 38 -8 58 -17z m-1854 -239 c12 -11 16 -36 16 -93 0 -106 10 -113
81 -55 70 58 122 73 158 46 36 -26 40 -81 9 -122 -12 -17 -44 -45 -71 -62 -66
-42 -61 -63 15 -63 64 0 92 -18 102 -66 12 -62 -38 -96 -123 -85 -35 5 -51 3
-60 -8 -12 -14 -5 -46 9 -46 5 0 22 -11 39 -25 27 -23 29 -29 19 -55 -12 -37
-46 -40 -89 -9 -29 20 -31 20 -50 4 -10 -10 -19 -25 -19 -33 0 -26 -85 -98
-136 -116 -60 -20 -111 -20 -160 0 -99 41 -140 103 -150 228 -6 61 -3 78 17
121 47 102 127 161 262 195 52 14 58 29 33 78 -31 63 -24 166 12 175 37 10 71
6 86 -9z m77 -796 c32 -65 86 -135 162 -214 l68 -72 -44 -25 c-61 -36 -111
-82 -162 -147 -105 -136 -155 -284 -157 -465 -1 -48 -5 -75 -12 -75 -13 0 -60
145 -76 235 -18 104 -22 227 -11 330 15 134 62 344 84 373 5 6 6 12 1 12 -5 0
14 13 41 29 28 16 57 36 64 45 7 9 15 16 17 16 2 0 13 -19 25 -42z m614 -328
c157 -59 280 -193 341 -370 35 -100 45 -162 45 -275 -1 -296 -171 -546 -416
-611 -221 -59 -477 83 -588 326 -131 287 -72 635 142 832 61 56 115 88 196
113 70 21 202 14 280 -15z m1350 -40 c113 -56 160 -103 224 -223 106 -198 99
-467 -16 -675 -47 -86 -124 -175 -186 -217 -28 -19 -55 -35 -58 -35 -3 0 2 26
13 57 41 126 94 477 103 686 5 123 4 138 -11 144 -29 11 -41 -23 -48 -140 -4
-61 -11 -155 -17 -207 -17 -163 -70 -435 -101 -522 -20 -56 -21 -57 -70 -67
-27 -6 -76 -11 -108 -11 -64 0 -72 8 -47 45 24 35 135 355 166 475 30 119 35
145 52 270 5 41 17 121 25 176 20 133 17 178 -14 182 -26 4 -29 -3 -36 -88
-20 -253 -93 -610 -152 -745 -7 -16 -28 -73 -47 -126 -20 -53 -43 -113 -54
-132 l-18 -36 -45 20 c-24 11 -46 21 -47 23 -4 3 70 235 86 271 18 40 41 106
50 143 6 20 26 96 45 167 82 298 104 396 108 472 3 75 2 78 -20 81 -27 4 -29
-1 -42 -103 -12 -100 -16 -122 -42 -215 -11 -41 -21 -82 -23 -90 -2 -8 -12
-44 -24 -80 -11 -36 -34 -117 -52 -180 -17 -63 -37 -128 -44 -145 -7 -16 -25
-66 -39 -110 -15 -44 -31 -88 -36 -97 -6 -10 -10 -23 -10 -30 0 -7 -4 -19 -9
-26 -6 -11 -18 -4 -50 30 -55 58 -58 75 -26 145 30 66 83 214 113 318 28 97
57 302 56 393 -1 42 -19 62 -38 42 -15 -15 -19 -40 -31 -155 -17 -180 -57
-349 -110 -470 -7 -16 -23 -52 -34 -79 -27 -63 -37 -54 -66 59 -18 68 -22 108
-20 198 2 61 5 121 8 132 30 120 50 166 105 255 44 71 103 132 175 181 99 68
178 90 301 84 68 -4 91 -11 161 -45z m-660 -147 c-46 -60 -110 -192 -126 -258
-29 -127 -32 -318 -5 -409 25 -84 20 -90 -66 -83 -39 3 -75 10 -79 14 -6 6 0
45 12 94 45 176 23 399 -55 550 l-34 66 58 2 c62 2 258 43 287 60 39 23 42 9
8 -36z m-1900 -579 c67 -14 198 -11 270 7 56 14 69 3 59 -51 -15 -80 -3 -105
57 -115 22 -4 38 -12 36 -18 -11 -33 -208 -53 -283 -28 -38 12 -45 11 -110
-17 -139 -60 -257 -88 -380 -91 -74 -1 -128 13 -96 26 38 15 139 104 231 203
94 101 106 111 130 104 14 -3 53 -12 86 -20z"/>
<path d="M1749 4519 c-20 -10 -45 -29 -55 -44 -15 -24 -16 -28 -2 -42 14 -13
20 -13 54 3 36 17 68 20 139 12 27 -3 30 0 33 30 3 29 0 34 -32 47 -43 18 -86
16 -137 -6z"/>
<path d="M2246 4034 c-10 -26 -7 -31 31 -49 96 -46 277 -54 317 -15 16 15 17
22 7 34 -9 11 -28 13 -84 9 -55 -4 -93 0 -157 16 -100 25 -106 25 -114 5z"/>
<path d="M1932 3986 c-74 -47 -175 -86 -224 -86 -32 0 -52 -23 -43 -50 7 -23
38 -26 99 -9 21 6 48 12 59 15 34 6 120 52 155 82 33 29 42 66 18 75 -8 3 -37
-9 -64 -27z"/>
<path d="M2915 3793 c-88 -20 -146 -62 -165 -119 -42 -127 105 -229 277 -194
160 34 222 159 124 252 -56 53 -157 79 -236 61z"/>
<path d="M855 3579 c-112 -81 -124 -94 -149 -173 -5 -14 -10 -16 -17 -9 -8 8
-3 36 15 96 32 106 33 119 4 115 -28 -4 -44 -36 -76 -153 -53 -199 -59 -279
-25 -332 11 -16 12 -30 5 -55 -11 -42 -2 -74 37 -128 17 -24 31 -54 31 -67 0
-34 16 -62 59 -104 20 -19 51 -51 69 -71 45 -50 113 -72 222 -69 66 1 96 7
137 26 28 14 56 25 61 25 13 0 58 51 78 90 23 44 26 149 4 175 -11 13 -14 40
-12 110 4 120 -9 163 -69 223 -43 43 -61 76 -113 207 -23 60 -37 76 -59 73
-53 -8 -55 -72 -11 -317 27 -149 28 -171 14 -171 -15 0 -27 64 -45 235 -31
306 -30 299 -61 313 -14 7 -26 12 -27 12 -1 0 -34 -23 -72 -51z m69 -151 c-17
-59 -39 -81 -29 -30 4 15 8 38 11 52 3 14 10 43 17 65 l11 40 4 -35 c2 -19 -4
-61 -14 -92z m32 -173 c-9 -19 -19 -35 -23 -35 -7 0 5 113 15 137 5 13 9 7 16
-24 7 -33 5 -50 -8 -78z m-276 30 c0 -13 -4 -27 -10 -30 -6 -4 -10 8 -10 30 0
22 4 34 10 30 6 -3 10 -17 10 -30z m84 3 c10 -49 16 -315 8 -343 l-9 -30 -11
40 c-15 52 -15 56 5 70 16 12 16 18 5 57 -25 83 -34 142 -27 185 7 46 22 57
29 21z m216 -152 c-7 -7 -10 1 -9 25 0 32 1 33 10 10 6 -16 6 -28 -1 -35z
m260 -1 c13 -15 9 -110 -6 -149 -12 -32 -29 -11 -24 30 3 21 4 60 4 87 -1 49
5 57 26 32z m-242 -339 c-9 -59 -62 3 -73 85 -11 79 5 81 42 4 18 -39 32 -79
31 -89z m-149 79 c1 -23 -2 -26 -9 -15 -5 8 -9 31 -9 50 0 29 2 31 9 15 5 -11
9 -33 9 -50z m428 3 c-3 -8 -6 -5 -6 6 -1 11 2 17 5 13 3 -3 4 -12 1 -19z
m-197 -33 c-12 -15 -30 -12 -30 5 0 5 8 16 18 26 16 17 17 17 20 0 2 -9 -2
-23 -8 -31z m192 -12 c-3 -16 -7 -22 -10 -15 -4 13 4 42 11 42 2 0 2 -12 -1
-27z m-42 -78 c0 -8 -7 -15 -15 -15 -8 0 -15 7 -15 15 0 8 7 15 15 15 8 0 15
-7 15 -15z"/>
<path d="M2416 1422 c-2 -4 -7 -85 -10 -180 -12 -395 -61 -659 -162 -880 -29
-63 -28 -86 3 -90 18 -3 27 7 51 55 62 123 125 357 152 563 13 106 25 477 16
513 -6 26 -38 38 -50 19z"/>
<path d="M2282 1391 c-8 -5 -15 -36 -18 -82 -26 -406 -60 -580 -170 -862 -17
-42 -17 -49 -4 -57 8 -5 20 -10 26 -10 29 0 95 172 143 376 50 213 88 597 61
629 -14 17 -20 18 -38 6z"/>
<path d="M2562 1313 c-6 -11 -6 -56 -2 -108 20 -231 -24 -578 -102 -795 -17
-47 -33 -100 -35 -118 -5 -32 -4 -33 22 -30 23 3 31 13 55 73 34 83 68 206 85
305 2 14 12 68 22 120 13 71 17 150 18 311 0 200 -2 219 -19 238 -23 26 -33
26 -44 4z"/>
<path d="M2096 1148 c-8 -13 -27 -54 -43 -93 -25 -66 -27 -80 -27 -227 -1
-138 1 -160 17 -175 26 -26 53 -6 50 38 -15 207 -5 295 44 396 14 29 23 60 19
68 -8 22 -43 18 -60 -7z"/>
<path d="M2749 1118 c-1 -7 -1 -60 1 -118 2 -126 -30 -270 -87 -387 -34 -70
-38 -103 -11 -103 21 0 33 12 61 61 36 61 74 171 86 250 15 90 14 282 -1 297
-16 16 -48 15 -49 0z"/>
<path d="M4116 861 c-4 -6 -11 -50 -16 -98 -5 -48 -19 -130 -31 -181 -18 -76
-20 -95 -9 -102 34 -21 52 11 80 151 25 122 24 232 -2 237 -9 2 -19 -2 -22 -7z"/>
<path d="M2160 4591 c-25 -13 -35 -25 -35 -42 0 -26 -1 -25 87 -12 27 4 47 -1
77 -18 33 -18 43 -20 56 -9 25 21 18 53 -18 78 -42 28 -118 30 -167 3z"/>
</g>
</svg>
